<svg xmlns="http://www.w3.org/2000/svg" width="32" height="32" viewBox="0 0 32 32" fill="none">
  <rect width="32" height="32" rx="8" fill="white"/>
  <g transform="translate(6, 6) scale(0.833)">
    <path d="m11 17 2 2 6-6" stroke="black" stroke-width="2" stroke-linecap="round" stroke-linejoin="round"/>
    <path d="m18 10 1-1a2 2 0 0 0-3-3l-7 7a2 2 0 0 0-1 3l1 1" stroke="black" stroke-width="2" stroke-linecap="round" stroke-linejoin="round"/>
    <path d="m12 5 3 3" stroke="black" stroke-width="2" stroke-linecap="round" stroke-linejoin="round"/>
    <path d="m10 17-2-2-6-6" stroke="black" stroke-width="2" stroke-linecap="round" stroke-linejoin="round"/>
    <path d="m6 10-1-1a2 2 0 0 1 3-3l7 7a2 2 0 0 1 1 3l-1 1" stroke="black" stroke-width="2" stroke-linecap="round" stroke-linejoin="round"/>
    <path d="m12 5-3 3" stroke="black" stroke-width="2" stroke-linecap="round" stroke-linejoin="round"/>
    <path d="M12 21a2 2 0 0 0 2-2l-1.2-1.2" stroke="black" stroke-width="2" stroke-linecap="round" stroke-linejoin="round"/>
    <path d="M12 21a2 2 0 0 1-2-2l1.2-1.2" stroke="black" stroke-width="2" stroke-linecap="round" stroke-linejoin="round"/>
  </g>
</svg>
